<svg width="365" height="47" viewBox="0 0 365 47" fill="none" xmlns="http://www.w3.org/2000/svg">
<path d="M274.646 11.7146L271.502 11.2477C271.405 11.2477 271.308 11.2477 271.308 11.3335L269.968 13.0199C269.9 13.1314 269.869 13.2615 269.881 13.3914C269.881 13.4867 269.784 13.6772 269.687 13.5819L268.639 13.3057C268.445 13.3057 268.26 13.3057 268.163 13.4867L263.874 18.9174C263.776 19.0127 263.679 19.0127 263.495 19.0127L261.874 18.26C261.804 18.2137 261.721 18.189 261.637 18.189C261.552 18.189 261.469 18.2137 261.399 18.26L260.535 18.8221C260.465 18.8696 260.382 18.8952 260.297 18.8952C260.212 18.8952 260.129 18.8696 260.059 18.8221L259.681 18.6316C259.618 18.6041 259.55 18.5898 259.482 18.5894C259.413 18.5891 259.345 18.6029 259.282 18.6297C259.219 18.6566 259.162 18.6961 259.116 18.7456C259.069 18.7952 259.034 18.8537 259.011 18.9174L258.73 20.2227C258.693 20.3614 258.701 20.5077 258.751 20.6421C258.801 20.7766 258.892 20.8928 259.011 20.9754L259.778 21.4422L261.777 22.6618L262.748 23.2238C262.882 23.299 263.037 23.3304 263.191 23.3132C263.344 23.2961 263.488 23.2314 263.602 23.1286L265.223 21.728C265.368 21.6416 265.54 21.6079 265.708 21.6328L266.183 21.909C266.368 22.0043 266.562 22.0043 266.659 21.8138L267.513 21.0706C267.572 21.008 267.65 20.9652 267.735 20.9481C267.82 20.9311 267.909 20.9406 267.989 20.9754L269.231 21.5375C269.425 21.6328 269.609 21.5375 269.803 21.4422L270.376 20.6991L274.666 15.2683C274.85 14.9825 274.763 14.6109 274.374 14.6109L273.404 14.4299C273.21 14.4299 273.122 14.1441 273.21 13.9535L274.743 12.1814C274.937 11.9909 274.831 11.7146 274.646 11.7146Z" fill="white"/>
<path d="M260.38 22.6617C260.283 22.5664 260.186 22.6616 260.186 22.7569L260.661 23.9669V24.2527L260.283 25.8438C260.276 25.8941 260.282 25.9451 260.299 25.993C260.316 26.0409 260.343 26.0844 260.38 26.1202L261.515 26.9681C261.571 27.0098 261.639 27.0325 261.709 27.0325C261.779 27.0325 261.848 27.0098 261.903 26.9681L263.136 25.9391C263.174 25.9031 263.22 25.8759 263.271 25.8594C263.321 25.8429 263.374 25.8376 263.427 25.8438L264.757 25.6533C264.854 25.6533 264.854 25.558 264.757 25.4628L260.38 22.6617Z" fill="white"/>
<path d="M259.962 26.6824C259.946 26.6607 259.925 26.6431 259.9 26.631C259.876 26.6188 259.849 26.6125 259.822 26.6125C259.794 26.6125 259.767 26.6188 259.743 26.631C259.718 26.6431 259.697 26.6607 259.681 26.6824L258.71 27.1492C258.685 27.1492 258.66 27.1593 258.642 27.1771C258.624 27.195 258.613 27.2193 258.613 27.2445L256.517 32.2941H256.614L257.09 32.1131V32.2084L255.566 34.6379C255.566 34.7332 255.566 34.7332 255.653 34.7332L260.991 29.3978C261.088 29.3978 261.088 29.3025 261.088 29.2072L261.185 27.8066C261.185 27.7114 261.185 27.6161 261.088 27.6161L259.962 26.6824Z" fill="white"/>
<path d="M301.597 27.8927V34.4381H280.091C280.091 34.4381 290.32 23.4052 291.669 20.8137C292.736 18.7748 291.601 17.5457 290.562 17.5457C289.524 17.5457 288.359 18.1269 288.359 20.8137L280.159 20.2706C280.159 15.1638 283.808 11.0098 290.562 11.0098C297.074 11.0098 301.044 14.3825 301.044 19.1844C301.044 22.1761 298.423 25.587 295.531 27.9022L301.597 27.8927Z" fill="white"/>
<path d="M325.859 23.0054C325.859 29.6175 321.405 35.0006 314.825 35.0006C308.245 35.0006 303.8 29.6175 303.8 23.0054C303.8 16.3932 308.245 11.0197 314.825 11.0197C321.405 11.0197 325.859 16.3361 325.859 23.0054Z" fill="white"/>
<path d="M349.569 27.8927V34.4381H328.063C328.063 34.4381 338.292 23.4052 339.641 20.8137C340.708 18.7748 339.573 17.5457 338.534 17.5457C337.496 17.5457 336.331 18.1269 336.331 20.8137L328.131 20.2706C328.131 15.1638 331.78 11.0098 338.534 11.0098C345.047 11.0098 349.016 14.3825 349.016 19.1844C349.016 22.1761 346.396 25.587 343.503 27.9022L349.569 27.8927Z" fill="white"/>
<path d="M365 11V34.4378H356.178V19.1937L352.296 19.6701V13.096L365 11Z" fill="white"/>
<path d="M8.5166 20.3809H1.63184V13.5547H20.1182L12.4863 28.2031H19.4004V35.0293L0.914062 35L8.5166 20.3809ZM30.0205 27.0166H36.1143V21.5381H30.0205V19.4141H36.6416V13.5547H21.7002V35H37.1104V29.1406H30.0205V27.0166ZM45.4893 24.3652C45.4893 25.2734 45.6797 26.0547 46.0605 26.709C46.4414 27.3633 46.9492 27.8662 47.584 28.2178C48.2285 28.5596 48.9365 28.7305 49.708 28.7305C50.4795 28.7305 51.1826 28.5596 51.8174 28.2178C52.4619 27.8662 52.9746 27.3633 53.3555 26.709C53.7363 26.0547 53.9268 25.2734 53.9268 24.3652C53.9268 23.457 53.7363 22.6709 53.3555 22.0068C52.9746 21.3428 52.4619 20.8301 51.8174 20.4688C51.1826 20.1074 50.4795 19.9268 49.708 19.9268C48.9365 19.9268 48.2285 20.1074 47.584 20.4688C46.9492 20.8301 46.4414 21.3428 46.0605 22.0068C45.6797 22.6709 45.4893 23.457 45.4893 24.3652ZM38.2822 24.3945C38.2822 22.6758 38.5801 21.1182 39.1758 19.7217C39.7715 18.3154 40.5918 17.1143 41.6367 16.1182C42.6914 15.1221 43.9072 14.3604 45.2842 13.833C46.6709 13.2959 48.1455 13.0273 49.708 13.0273C51.2803 13.0273 52.7549 13.2959 54.1318 13.833C55.5186 14.3604 56.7344 15.1221 57.7793 16.1182C58.8242 17.1143 59.6445 18.3154 60.2402 19.7217C60.8359 21.1182 61.1338 22.6758 61.1338 24.3945C61.1338 26.1426 60.8359 27.7148 60.2402 29.1113C59.6543 30.498 58.8389 31.6797 57.7939 32.6562C56.749 33.623 55.5332 34.3604 54.1465 34.8682C52.7695 35.376 51.29 35.6299 49.708 35.6299C48.1357 35.6299 46.6562 35.376 45.2695 34.8682C43.8926 34.3604 42.6816 33.623 41.6367 32.6562C40.5918 31.6797 39.7715 30.498 39.1758 29.1113C38.5801 27.7148 38.2822 26.1426 38.2822 24.3945ZM77.3789 13.5547H85.0254V35H77.3789L70.9922 25.2441V35H63.3311V13.5547H70.9922L77.3789 23.3105V13.5547ZM96.2168 35H87.9697V13.5547H96.2168V35ZM115.714 13.5547V20.2344H111.173V35H102.853V20.2344H98.3115V13.5547H115.714ZM124.034 27.2803L116.637 13.5547H125.851L128.165 20.4834L130.465 13.5547H139.679L132.281 27.2803V35H124.034V27.2803ZM164.464 13.5547H173.077L166.749 35H159.747L156.979 24.3652L154.225 35H147.223L140.895 13.5547H149.493L151.676 22.6953L154.078 13.5547H159.894L162.296 22.6953L164.464 13.5547ZM186.949 27.2217V35H195.064V13.5547H186.949V21.333H182.643V13.5547H174.513V35H182.643V27.2217H186.949ZM206.256 35H198.009V13.5547H206.256V35ZM217.521 13.5547H209.2V35H224.2V28.3203H217.521V13.5547ZM234.249 27.0166H240.343V21.5381H234.249V19.4141H240.87V13.5547H225.929V35H241.339V29.1406H234.249V27.0166Z" fill="url(#paint0_linear_61722_3137)"/>
<defs>
<linearGradient id="paint0_linear_61722_3137" x1="-4.97193e-06" y1="1.11486" x2="110.921" y2="147.251" gradientUnits="userSpaceOnUse">
<stop stop-color="#B62977"/>
<stop offset="0.615483" stop-color="#8BA3BA"/>
<stop offset="1" stop-color="#4AC1AC"/>
</linearGradient>
</defs>
</svg>
